<svg width="400" height="300" viewBox="0 0 400 300" fill="none" xmlns="http://www.w3.org/2000/svg">
  <rect width="400" height="300" fill="#E6F7FF"/>
  <rect x="50" y="100" width="50" height="150" fill="#BDBDBD"/>
  <rect x="60" y="120" width="10" height="10" fill="#FFFFFF"/>
  <rect x="80" y="120" width="10" height="10" fill="#FFFFFF"/>
  <rect x="60" y="140" width="10" height="10" fill="#FFFFFF"/>
  <rect x="80" y="140" width="10" height="10" fill="#FFFFFF"/>
  <rect x="60" y="160" width="10" height="10" fill="#FFFFFF"/>
  <rect x="80" y="160" width="10" height="10" fill="#FFFFFF"/>
  <rect x="60" y="180" width="10" height="10" fill="#FFFFFF"/>
  <rect x="80" y="180" width="10" height="10" fill="#FFFFFF"/>
  <rect x="60" y="200" width="10" height="10" fill="#FFFFFF"/>
  <rect x="80" y="200" width="10" height="10" fill="#FFFFFF"/>
  <rect x="60" y="220" width="10" height="10" fill="#FFFFFF"/>
  <rect x="80" y="220" width="10" height="10" fill="#FFFFFF"/>
  <rect x="120" y="150" width="30" height="100" fill="#BDBDBD"/>
  <rect x="125" y="160" width="5" height="5" fill="#FFFFFF"/>
  <rect x="140" y="160" width="5" height="5" fill="#FFFFFF"/>
  <rect x="125" y="175" width="5" height="5" fill="#FFFFFF"/>
  <rect x="140" y="175" width="5" height="5" fill="#FFFFFF"/>
  <rect x="125" y="190" width="5" height="5" fill="#FFFFFF"/>
  <rect x="140" y="190" width="5" height="5" fill="#FFFFFF"/>
  <rect x="125" y="205" width="5" height="5" fill="#FFFFFF"/>
  <rect x="140" y="205" width="5" height="5" fill="#FFFFFF"/>
  <rect x="125" y="220" width="5" height="5" fill="#FFFFFF"/>
  <rect x="140" y="220" width="5" height="5" fill="#FFFFFF"/>
  <rect x="125" y="235" width="5" height="5" fill="#FFFFFF"/>
  <rect x="140" y="235" width="5" height="5" fill="#FFFFFF"/>
  <rect x="170" y="120" width="40" height="130" fill="#BDBDBD"/>
  <rect x="180" y="130" width="5" height="5" fill="#FFFFFF"/>
  <rect x="195" y="130" width="5" height="5" fill="#FFFFFF"/>
  <rect x="180" y="145" width="5" height="5" fill="#FFFFFF"/>
  <rect x="195" y="145" width="5" height="5" fill="#FFFFFF"/>
  <rect x="180" y="160" width="5" height="5" fill="#FFFFFF"/>
  <rect x="195" y="160" width="5" height="5" fill="#FFFFFF"/>
  <rect x="180" y="175" width="5" height="5" fill="#FFFFFF"/>
  <rect x="195" y="175" width="5" height="5" fill="#FFFFFF"/>
  <rect x="180" y="190" width="5" height="5" fill="#FFFFFF"/>
  <rect x="195" y="190" width="5" height="5" fill="#FFFFFF"/>
  <rect x="180" y="205" width="5" height="5" fill="#FFFFFF"/>
  <rect x="195" y="205" width="5" height="5" fill="#FFFFFF"/>
  <rect x="180" y="220" width="5" height="5" fill="#FFFFFF"/>
  <rect x="195" y="220" width="5" height="5" fill="#FFFFFF"/>
  <rect x="180" y="235" width="5" height="5" fill="#FFFFFF"/>
  <rect x="195" y="235" width="5" height="5" fill="#FFFFFF"/>
  <rect x="230" y="80" width="60" height="170" fill="#BDBDBD"/>
  <rect x="240" y="90" width="10" height="10" fill="#FFFFFF"/>
  <rect x="270" y="90" width="10" height="10" fill="#FFFFFF"/>
  <rect x="240" y="110" width="10" height="10" fill="#FFFFFF"/>
  <rect x="270" y="110" width="10" height="10" fill="#FFFFFF"/>
  <rect x="240" y="130" width="10" height="10" fill="#FFFFFF"/>
  <rect x="270" y="130" width="10" height="10" fill="#FFFFFF"/>
  <rect x="240" y="150" width="10" height="10" fill="#FFFFFF"/>
  <rect x="270" y="150" width="10" height="10" fill="#FFFFFF"/>
  <rect x="240" y="170" width="10" height="10" fill="#FFFFFF"/>
  <rect x="270" y="170" width="10" height="10" fill="#FFFFFF"/>
  <rect x="240" y="190" width="10" height="10" fill="#FFFFFF"/>
  <rect x="270" y="190" width="10" height="10" fill="#FFFFFF"/>
  <rect x="240" y="210" width="10" height="10" fill="#FFFFFF"/>
  <rect x="270" y="210" width="10" height="10" fill="#FFFFFF"/>
  <rect x="240" y="230" width="10" height="10" fill="#FFFFFF"/>
  <rect x="270" y="230" width="10" height="10" fill="#FFFFFF"/>
  <rect x="310" y="130" width="40" height="120" fill="#BDBDBD"/>
  <rect x="320" y="140" width="5" height="5" fill="#FFFFFF"/>
  <rect x="335" y="140" width="5" height="5" fill="#FFFFFF"/>
  <rect x="320" y="155" width="5" height="5" fill="#FFFFFF"/>
  <rect x="335" y="155" width="5" height="5" fill="#FFFFFF"/>
  <rect x="320" y="170" width="5" height="5" fill="#FFFFFF"/>
  <rect x="335" y="170" width="5" height="5" fill="#FFFFFF"/>
  <rect x="320" y="185" width="5" height="5" fill="#FFFFFF"/>
  <rect x="335" y="185" width="5" height="5" fill="#FFFFFF"/>
  <rect x="320" y="200" width="5" height="5" fill="#FFFFFF"/>
  <rect x="335" y="200" width="5" height="5" fill="#FFFFFF"/>
  <rect x="320" y="215" width="5" height="5" fill="#FFFFFF"/>
  <rect x="335" y="215" width="5" height="5" fill="#FFFFFF"/>
  <rect x="320" y="230" width="5" height="5" fill="#FFFFFF"/>
  <rect x="335" y="230" width="5" height="5" fill="#FFFFFF"/>
  <path d="M0 250H400V260H0V250Z" fill="#795548"/>
  <circle cx="50" cy="80" r="20" fill="#FFEB3B"/>
</svg>
