<svg width="800" height="600" viewBox="0 0 800 600" fill="none" xmlns="http://www.w3.org/2000/svg">
  <rect width="800" height="600" fill="white"/>
  <circle cx="400" cy="300" r="150" fill="#E6F7FF"/>
  <path d="M400 150C331.716 150 276.777 204.939 276.777 273.223C276.777 341.507 331.716 396.446 400 396.446C468.284 396.446 523.223 341.507 523.223 273.223C523.223 204.939 468.284 150 400 150Z" fill="#B3E5FC"/>
  <path d="M400 150C331.716 150 276.777 204.939 276.777 273.223C276.777 341.507 331.716 396.446 400 396.446C468.284 396.446 523.223 341.507 523.223 273.223C523.223 204.939 468.284 150 400 150Z" fill="#4DD0E1"/>
  <path d="M400 150C331.716 150 276.777 204.939 276.777 273.223C276.777 341.507 331.716 396.446 400 396.446C468.284 396.446 523.223 341.507 523.223 273.223C523.223 204.939 468.284 150 400 150Z" fill="#26C6DA"/>
  <path d="M400 150C331.716 150 276.777 204.939 276.777 273.223C276.777 341.507 331.716 396.446 400 396.446C468.284 396.446 523.223 341.507 523.223 273.223C523.223 204.939 468.284 150 400 150Z" fill="#00ACC1"/>
  <path d="M400 150C331.716 150 276.777 204.939 276.777 273.223C276.777 341.507 331.716 396.446 400 396.446C468.284 396.446 523.223 341.507 523.223 273.223C523.223 204.939 468.284 150 400 150Z" fill="#0097A7"/>
  <path d="M400 150C331.716 150 276.777 204.939 276.777 273.223C276.777 341.507 331.716 396.446 400 396.446C468.284 396.446 523.223 341.507 523.223 273.223C523.223 204.939 468.284 150 400 150Z" fill="#00838F"/>
  <path d="M400 150C331.716 150 276.777 204.939 276.777 273.223C276.777 341.507 331.716 396.446 400 396.446C468.284 396.446 523.223 341.507 523.223 273.223C523.223 204.939 468.284 150 400 150Z" fill="#006064"/>
  <path d="M400 150C331.716 150 276.777 204.939 276.777 273.223C276.777 341.507 331.716 396.446 400 396.446C468.284 396.446 523.223 341.507 523.223 273.223C523.223 204.939 468.284 150 400 150Z" fill="#00BCD4"/>
  <path d="M350 250L450 350" stroke="white" stroke-width="10" stroke-linecap="round"/>
  <path d="M450 250L350 350" stroke="white" stroke-width="10" stroke-linecap="round"/>
  <rect x="300" y="400" width="200" height="50" rx="10" fill="#FFB74D"/>
  <rect x="325" y="425" width="150" height="10" rx="5" fill="#FFA726"/>
  <path d="M600 200L650 250L600 300" stroke="#4CAF50" stroke-width="10" stroke-linecap="round" stroke-linejoin="round"/>
  <path d="M200 200L150 250L200 300" stroke="#4CAF50" stroke-width="10" stroke-linecap="round" stroke-linejoin="round"/>
  <circle cx="650" cy="150" r="30" fill="#FFEB3B"/>
  <path d="M650 120L650 180" stroke="#FFC107" stroke-width="5" stroke-linecap="round"/>
  <path d="M620 150L680 150" stroke="#FFC107" stroke-width="5" stroke-linecap="round"/>
  <path d="M628 128L672 172" stroke="#FFC107" stroke-width="5" stroke-linecap="round"/>
  <path d="M628 172L672 128" stroke="#FFC107" stroke-width="5" stroke-linecap="round"/>
  <rect x="100" y="400" width="100" height="100" rx="10" fill="#8D6E63"/>
  <rect x="125" y="425" width="50" height="50" rx="5" fill="#6D4C41"/>
  <path d="M600 400L700 400L650 450L600 400Z" fill="#8D6E63"/>
  <path d="M625 400L675 400L650 425L625 400Z" fill="#6D4C41"/>
  <path d="M400 450C400 450 450 500 500 450" stroke="#4CAF50" stroke-width="10" stroke-linecap="round"/>
  <path d="M400 450C400 450 350 500 300 450" stroke="#4CAF50" stroke-width="10" stroke-linecap="round"/>
  <circle cx="400" cy="450" r="10" fill="#4CAF50"/>
</svg>
